<svg width="720" height="1022" viewBox="0 0 720 1022" fill="none" xmlns="http://www.w3.org/2000/svg">
<g clip-path="url(#clip0_2_5)">
<path d="M232.23 969.633L229.48 981.662L230.142 982.383C229.995 982.751 229.848 983.118 229.671 983.486C228.21 986.785 226.54 989.988 224.671 993.074C222.2 997.177 219.435 1001.13 216.567 1005.02C214.993 1007.16 213.375 1009.29 211.758 1011.41C211.714 1011.48 211.664 1011.55 211.61 1011.62C211.628 1011.54 211.653 1011.47 211.684 1011.4L211.155 1011.28L208.11 998.074L207.184 1000.16V1000.18L205.683 1003.63C205.801 1004.27 205.919 1004.88 206.066 1005.5C206.051 1005.49 206.051 1005.46 206.036 1005.44C206.022 1005.43 206.022 1005.43 206.022 1005.41C205.831 1005 205.625 1004.6 205.433 1004.19L203.139 1009.46L198.492 1008.4C196.05 1007.13 193.609 1005.85 191.182 1004.53C158.032 986.545 127.337 963.589 106.673 932.34C98.4595 919.891 92.251 906.229 88.2746 891.855C80.4356 863.296 81.7886 832.562 96.0548 807.047L96.0558 807.042L96.059 807.037L96.0638 807.034L96.0695 807.033C96.4225 806.385 96.7902 805.738 97.1725 805.091C97.452 805.827 97.7167 806.562 98.0109 807.297V807.312C101.845 817.298 106.473 826.961 111.851 836.209C112.262 836.929 112.674 837.65 113.115 838.356C126.251 860.403 143.366 879.82 163.591 895.619C163.646 895.673 163.705 895.722 163.767 895.767C163.837 895.825 163.911 895.879 163.988 895.928C168.489 899.458 173.141 902.776 177.945 905.884V905.899C181.696 908.34 185.549 910.649 189.461 912.84C197.8 917.487 206.875 921.957 214.67 927.531C222.244 932.928 228.627 939.354 232.024 947.957C232.289 948.648 232.539 949.339 232.76 950.03L226.7 968.721L232.23 969.633Z" fill="#F0F0F0"/>
<path d="M207.184 1000.16V1000.18L205.684 1003.63C203.419 991.045 206.11 977.736 204.242 964.986C204.036 963.56 203.772 962.133 203.433 960.721C201.521 952.663 197.153 945.119 189.388 941.516C187.121 940.484 184.742 939.719 182.299 939.237C177.475 938.207 172.445 937.987 167.577 937.413C166.356 937.266 165.15 937.104 163.973 936.884C157.679 935.908 151.669 933.586 146.354 930.075C139.847 925.451 134.177 919.752 129.588 913.222C126.555 909.123 123.732 904.873 121.131 900.487C120.778 899.928 120.454 899.355 120.116 898.781C114.029 888.24 109.037 877.104 105.218 865.546C103.25 859.639 101.6 853.63 100.276 847.547C97.3283 834.252 95.9121 820.664 96.0549 807.047C96.0548 807.045 96.0552 807.043 96.0559 807.041C96.0566 807.04 96.0577 807.038 96.0591 807.037C96.0604 807.035 96.0621 807.034 96.0639 807.033C96.0657 807.033 96.0676 807.032 96.0696 807.032C96.0549 806.415 96.0696 805.797 96.0843 805.179C96.1137 803.915 98.0698 804.194 98.0404 805.459C98.0256 806.077 98.011 806.679 98.011 807.297V807.312C97.8912 820.358 99.2081 833.377 101.938 846.135C102.085 846.782 102.232 847.429 102.364 848.076C106.341 865.755 113.023 882.714 122.175 898.355C122.278 898.531 122.381 898.708 122.499 898.884C124.631 902.516 126.926 906.046 129.338 909.502C133.769 916.154 139.219 922.069 145.486 927.031C150.76 930.975 156.886 933.63 163.37 934.781C164.018 934.898 164.665 935.016 165.327 935.119C165.841 935.207 166.371 935.281 166.9 935.339C171.857 935.957 176.945 936.192 181.872 937.134C184.112 937.556 186.312 938.171 188.447 938.972C191.941 940.372 195.1 942.495 197.715 945.201C200.331 947.908 202.345 951.138 203.625 954.677C204.936 958.113 205.834 961.692 206.301 965.339C206.463 966.53 206.581 967.721 206.684 968.927V968.942C206.831 970.883 206.904 972.839 206.934 974.795C206.963 977.236 206.919 979.677 206.86 982.103C206.534 988.123 206.642 994.158 207.184 1000.16Z" fill="white"/>
<path d="M121.968 900.076C116.363 902.922 109.93 903.683 103.816 902.225C97.7016 900.766 92.3052 897.181 88.5903 892.111C87.8421 891.083 89.4053 889.872 90.1544 890.902C93.605 895.629 98.6321 898.968 104.328 900.315C110.024 901.662 116.015 900.928 121.217 898.247C122.349 897.665 123.093 899.498 121.968 900.076Z" fill="white"/>
<path d="M163.179 935.368C167.274 923.19 166.628 909.917 161.371 898.193C160.849 897.032 162.678 896.284 163.199 897.443C168.648 909.653 169.292 923.468 165.002 936.131C164.593 937.338 162.771 936.568 163.179 935.368Z" fill="white"/>
<path d="M101.367 846.317C103.765 845.668 105.964 844.433 107.766 842.724C109.569 841.014 110.919 838.884 111.695 836.524C112.089 835.313 113.91 836.084 113.518 837.287C112.649 839.89 111.155 842.241 109.168 844.134C107.18 846.027 104.76 847.404 102.117 848.146C101.874 848.237 101.605 848.231 101.365 848.131C101.126 848.031 100.934 847.843 100.827 847.607C100.729 847.364 100.731 847.092 100.832 846.851C100.933 846.609 101.125 846.418 101.367 846.317Z" fill="white"/>
<path d="M211.522 1011.74C211.552 1011.69 211.581 1011.66 211.611 1011.62C211.552 1011.79 211.493 1011.97 211.449 1012.16L211.522 1011.74Z" fill="#F0F0F0"/>
<path d="M255.247 921.207L253.188 928.413L240.54 926.045L236.348 938.972L235.628 941.192L232.76 950.03L226.7 968.721L232.23 969.633L229.48 981.662L230.142 982.383L230.348 982.603L231.715 984.103L240.04 993.192L217.273 1012.68L213.625 1011.84L211.758 1011.41C211.714 1011.48 211.664 1011.55 211.611 1011.62C211.628 1011.54 211.653 1011.47 211.684 1011.4L211.155 1011.28L208.11 998.074L207.184 1000.16V1000.18L205.683 1003.63C205.801 1004.26 205.919 1004.88 206.066 1005.5C206.051 1005.49 206.051 1005.46 206.036 1005.44C206.022 1005.43 206.022 1005.43 206.022 1005.41C205.831 1005 205.625 1004.6 205.433 1004.19C202.521 998.118 199.742 991.956 197.168 985.721C190.825 970.704 185.848 955.147 182.299 939.236C182.152 938.545 181.99 937.854 181.872 937.148V937.134C179.715 926.846 178.401 916.4 177.945 905.899V905.884C177.71 900.135 177.769 894.377 178.122 888.634C179.052 873.79 182.313 859.186 187.785 845.355C187.814 845.282 187.843 845.223 187.873 845.15C198.359 818.768 216.817 795.886 241.908 783.695C242.952 783.165 244.026 782.665 245.099 782.195H245.129L245.143 782.18C245.82 781.886 246.482 781.606 247.158 781.312C246.938 782.077 246.702 782.842 246.496 783.621C243.528 793.896 241.403 804.397 240.143 815.018V815.032C240.025 815.841 239.922 816.679 239.834 817.503V817.518C237.059 843.134 239.064 869.043 245.746 893.928C245.761 894.002 245.79 894.061 245.805 894.134C248.301 903.373 251.456 912.42 255.247 921.207Z" fill="#F0F0F0"/>
<path d="M231.716 984.104C230.554 985.662 229.362 987.177 228.156 988.692C226.994 990.148 225.833 991.603 224.671 993.074C221.634 996.816 218.922 1000.81 216.567 1005.01C215.386 1007.2 214.402 1009.48 213.625 1011.84L211.758 1011.41C211.714 1011.48 211.664 1011.55 211.611 1011.62C211.628 1011.54 211.653 1011.47 211.684 1011.4C215.111 1000.69 222.906 992.397 229.671 983.486C229.907 983.192 230.127 982.898 230.348 982.604L231.716 984.104Z" fill="white"/>
<path d="M247.644 782.136C247.261 782.621 246.864 783.121 246.496 783.621C243.629 787.342 240.917 791.18 238.363 795.136C233.814 802.115 229.774 809.413 226.274 816.974C225.994 817.562 225.715 818.165 225.45 818.768C217.96 835.287 213.078 852.868 210.978 870.884C210.949 871.061 210.934 871.223 210.919 871.399C210.434 875.605 210.12 879.826 209.978 884.061C209.509 892.036 210.298 900.036 212.317 907.766C212.611 908.781 212.934 909.781 213.287 910.752C214.172 913.13 215.28 915.42 216.596 917.59C217.542 919.173 218.594 920.692 219.744 922.134C220.435 923.016 221.156 923.884 221.92 924.722C222.362 925.207 222.818 925.693 223.274 926.178C223.656 926.546 224.024 926.928 224.406 927.296C228.377 931.148 232.76 934.722 236.348 938.972L235.628 941.192C232.172 936.81 227.715 933.178 223.7 929.354C221.179 926.984 218.885 924.385 216.846 921.59C216.582 921.207 216.302 920.825 216.052 920.428C214.69 918.437 213.513 916.325 212.537 914.119C212.037 913.016 211.581 911.884 211.169 910.707C208.767 903.104 207.672 895.148 207.934 887.178C207.981 882.073 208.285 876.974 208.846 871.899C208.905 871.237 208.978 870.59 209.066 869.929C210.558 857.85 213.278 845.955 217.185 834.429C222.129 819.807 228.931 805.879 237.422 792.989C239.849 789.297 242.423 785.695 245.143 782.18C245.496 781.695 245.864 781.224 246.246 780.739C247.026 779.739 248.423 781.136 247.644 782.136Z" fill="white"/>
<path d="M209.766 872.085C203.578 870.984 197.982 867.719 193.979 862.873C189.976 858.028 187.825 851.917 187.912 845.633C187.918 845.377 188.023 845.133 188.205 844.952C188.388 844.772 188.633 844.67 188.889 844.666C189.145 844.663 189.393 844.76 189.579 844.936C189.766 845.111 189.877 845.353 189.889 845.609C189.798 851.461 191.801 857.153 195.538 861.657C199.275 866.162 204.5 869.182 210.269 870.173C211.522 870.39 211.013 872.301 209.766 872.085Z" fill="white"/>
<path d="M221.42 925.073C232.023 917.815 239.5 906.828 242.361 894.303C242.643 893.062 244.554 893.565 244.272 894.805C241.271 907.834 233.467 919.252 222.417 926.78C221.363 927.497 220.372 925.786 221.42 925.073Z" fill="white"/>
<path d="M225.688 816.76C227.993 817.685 230.493 818.023 232.961 817.744C235.43 817.464 237.79 816.576 239.831 815.159C240.875 814.429 241.865 816.14 240.827 816.865C238.566 818.421 235.958 819.398 233.231 819.713C230.504 820.028 227.742 819.671 225.185 818.672C224.936 818.598 224.725 818.432 224.594 818.208C224.463 817.984 224.423 817.718 224.481 817.465C224.548 817.212 224.713 816.996 224.939 816.864C225.165 816.732 225.434 816.695 225.688 816.76Z" fill="white"/>
<path d="M435.353 164.597C424.218 105.009 441.749 37.2186 490.474 1.15027C487.712 67.0133 508.339 131.73 548.705 183.851C564.345 203.895 583.828 224.561 583.223 249.977C582.847 265.791 574.293 280.524 563.021 291.623C551.748 302.722 537.862 310.725 524.143 318.602L522.007 321.924C481.788 276.565 446.488 224.184 435.353 164.597Z" fill="#F0F0F0"/>
<path d="M491.362 2.06121C470.891 47.8713 465.376 98.9662 475.601 148.089C477.855 158.599 481.057 169.065 486.488 178.403C491.851 187.464 499.543 194.924 508.764 200.008C517.268 204.921 526.534 208.962 533.695 215.855C541.243 223.122 544.604 233.04 544.324 243.402C543.981 256.08 539.103 267.878 533.931 279.251C528.189 291.878 522.024 304.903 522.397 319.099C522.442 320.819 519.77 320.788 519.725 319.071C519.077 294.372 536.936 274.536 540.915 250.836C542.772 239.777 541.307 228.092 533.531 219.52C526.732 212.024 517.179 207.849 508.527 202.949C499.441 197.804 491.706 191.448 485.957 182.636C480.076 173.621 476.458 163.258 473.945 152.852C468.421 129.21 466.65 104.848 468.695 80.6563C470.876 53.0338 477.767 25.9878 489.069 0.688675C489.769 -0.876891 492.058 0.50586 491.362 2.06121Z" fill="white"/>
<path d="M471.377 132.465C462.902 133.062 454.49 130.626 447.645 125.594C440.799 120.562 435.966 113.26 434.007 104.994C433.617 103.32 436.2 102.634 436.591 104.31C438.401 112.012 442.904 118.813 449.288 123.486C455.672 128.159 463.516 130.396 471.405 129.794C473.12 129.665 473.082 132.337 471.377 132.465Z" fill="white"/>
<path d="M504.125 198.085C515.631 185.076 521.81 168.208 521.43 150.846C521.391 149.125 524.063 149.156 524.102 150.874C524.463 168.942 517.997 186.482 505.994 199.994C504.849 201.281 502.986 199.365 504.125 198.085Z" fill="white"/>
<path d="M474.006 54.6928C477.334 55.1453 480.722 54.7643 483.865 53.5841C487.009 52.4039 489.811 50.4615 492.018 47.9312C493.146 46.6302 495.008 48.5476 493.887 49.84C491.436 52.6242 488.339 54.7656 484.869 56.0773C481.398 57.3889 477.659 57.8308 473.978 57.3643C473.628 57.3494 473.296 57.2015 473.05 56.9508C472.805 56.7001 472.664 56.3653 472.656 56.0145C472.662 55.6608 472.807 55.3236 473.059 55.0761C473.312 54.8285 473.653 54.6909 474.006 54.6928Z" fill="white"/>
<path d="M689.733 50.4381C689.052 51.2704 688.371 52.1028 687.695 52.957C678.594 64.1949 670.421 76.1535 663.257 88.7148C662.688 89.6772 662.125 90.661 661.585 91.6378C644.647 122.085 633.51 155.411 628.739 189.924C626.853 203.659 626.016 217.517 626.233 231.379C626.534 250.523 628.384 271.256 622.515 288.864C621.923 290.707 621.218 292.513 620.403 294.269L526.226 324.272C525.977 324.232 525.735 324.215 525.486 324.176L521.78 325.546C521.719 324.832 521.671 324.09 521.61 323.376C521.573 322.961 521.556 322.541 521.519 322.126C521.501 321.848 521.484 321.57 521.452 321.32C521.445 321.227 521.44 321.134 521.44 321.063C521.408 320.813 521.405 320.577 521.379 320.349C521.099 316.202 520.84 312.048 520.625 307.881C520.618 307.859 520.618 307.859 520.632 307.831C519.016 276.09 520.035 243.935 525.903 212.958C526.08 212.026 526.249 211.073 526.469 210.127C529.192 196.178 533.05 182.475 538.005 169.155C540.742 161.87 543.846 154.729 547.305 147.757C556.277 129.762 568.024 113.29 582.116 98.9449C610.212 70.3522 647.14 51.0622 686.71 50.4548C687.722 50.44 688.714 50.4314 689.733 50.4381Z" fill="#F0F0F0"/>
<path d="M689.903 51.7007C645.974 75.9538 610.804 113.43 589.39 158.807C584.861 168.557 581.116 178.841 579.829 189.565C578.655 200.029 580.304 210.616 584.606 220.227C588.437 229.268 593.403 238.073 594.97 247.888C596.621 258.234 593.333 268.176 586.87 276.281C578.962 286.197 567.962 292.681 556.985 298.648C544.797 305.273 532.033 311.961 523.782 323.52C522.782 324.921 520.667 323.288 521.665 321.89C536.02 301.779 562.223 296.692 579.671 280.164C587.813 272.452 593.679 262.24 592.632 250.715C591.717 240.637 586.604 231.553 582.645 222.432C578.489 212.854 576.141 203.123 576.857 192.626C577.589 181.888 580.94 171.436 585.2 161.613C595.025 139.412 608.28 118.893 624.479 100.809C642.853 80.0669 664.64 62.6204 688.898 49.2244C690.4 48.3959 691.395 50.8776 689.903 51.7007Z" fill="white"/>
<path d="M595.425 143.79C588.298 139.164 583.049 132.156 580.613 124.017C578.177 115.878 578.714 107.139 582.128 99.359C582.825 97.7873 585.3 98.7952 584.603 100.369C581.41 107.607 580.911 115.748 583.194 123.323C585.478 130.897 590.394 137.406 597.056 141.674C598.502 142.603 596.863 144.714 595.425 143.79Z" fill="white"/>
<path d="M582.06 215.898C599.08 212.437 614.17 202.689 624.321 188.598C625.326 187.201 627.441 188.833 626.438 190.228C615.847 204.873 600.123 214.985 582.403 218.548C580.714 218.886 580.38 216.235 582.06 215.898Z" fill="white"/>
<path d="M644.354 83.2761C646.738 85.6405 649.672 87.3757 652.893 88.326C656.114 89.2762 659.52 89.4117 662.806 88.7203C664.49 88.3607 664.823 91.0126 663.15 91.3699C659.515 92.1169 655.754 91.9626 652.193 90.9206C648.632 89.8786 645.381 87.9806 642.723 85.3923C642.452 85.1693 642.276 84.8516 642.231 84.5036C642.186 84.1556 642.275 83.8035 642.48 83.5188C642.697 83.2397 643.016 83.0577 643.367 83.0122C643.718 82.9668 644.072 83.0615 644.354 83.2761Z" fill="white"/>
<path d="M84.5465 93.4131C79.3426 89.7402 73.6492 85.9102 67.2813 86.0632C51.8691 86.4338 43.5595 109.025 28.1631 108.23C18.3445 107.724 11.8264 97.7504 2.68405 94.1342C-9.21829 89.4264 -24.3649 98.6337 -25.6634 111.366L-24.1348 109.967C22.1319 121.245 70.1444 123.463 117.254 116.498C106.352 108.803 95.4491 101.108 84.5465 93.4131Z" fill="#F0F0F0"/>
<path d="M113.384 120.587C142.92 120.587 166.864 96.6456 166.864 67.1129C166.864 37.5802 142.92 13.6393 113.384 13.6393C83.848 13.6393 59.9043 37.5802 59.9043 67.1129C59.9043 96.6456 83.848 120.587 113.384 120.587Z" fill="#FF6582"/>
<path d="M719.62 593.696L662.866 289.849C661.895 284.84 659.251 280.309 655.367 277C651.483 273.691 646.59 271.8 641.49 271.636C641.031 271.626 640.572 271.626 640.113 271.636L601.451 273.023L597.29 273.176L577.995 273.869L573.834 274.012L561.422 274.461L311.153 283.445C310.776 283.465 310.388 283.465 310.011 283.455L253.93 282.282L233.176 281.854L232.513 281.844L217.195 281.517L83.7184 278.744L48.3299 277.999L30.8804 277.642L26.6991 277.551L6.80196 277.143L2.63086 277.051L-17.7252 276.633L-21.8964 276.541L-44.2615 276.072L-47.7698 276.001L-67.7179 275.583L-70.8692 275.521H-71.328C-76.6238 275.543 -81.7415 277.436 -85.7763 280.866C-89.8112 284.296 -92.5034 289.041 -93.377 294.264L-144.706 609.563C-145.227 612.757 -145.047 616.026 -144.18 619.143C-143.312 622.261 -141.777 625.153 -139.681 627.619C-137.584 630.084 -134.977 632.065 -132.039 633.423C-129.101 634.781 -125.903 635.484 -122.667 635.484H172.108C176.447 635.496 180.669 636.889 184.163 639.461L189.751 643.601C193.603 646.436 198.257 647.971 203.04 647.986H376.76C379.695 647.993 382.603 647.419 385.314 646.295C388.026 645.171 390.488 643.521 392.557 641.439C396.096 637.902 400.818 635.799 405.815 635.535L698.836 620.096C702.013 619.93 705.119 619.087 707.944 617.624C710.769 616.16 713.249 614.11 715.217 611.61C717.185 609.11 718.596 606.218 719.355 603.129C720.115 600.039 720.205 596.823 719.62 593.696Z" fill="#CCCCCC"/>
<path d="M673.177 585.436L641.541 272.044C641.531 271.912 641.511 271.769 641.49 271.636C640.898 266.629 638.426 262.033 634.576 258.778L566.522 202.091C563.562 199.607 559.884 198.138 556.027 197.9C524.892 195.901 366.602 188.498 308.175 239.209C306.403 240.752 304.313 241.887 302.054 242.535C299.796 243.184 297.422 243.329 295.101 242.962C292.774 242.584 290.557 241.709 288.6 240.396C286.643 239.083 284.992 237.364 283.76 235.354C278.792 227.612 272.283 220.975 264.638 215.857C261.206 213.474 257.629 211.305 253.93 209.362C250.656 207.638 247.097 205.966 243.222 204.355C239.887 202.968 236.327 201.632 232.513 200.358C212.739 193.75 186.304 188.814 150.977 187.162C136.322 186.469 120.392 186.377 103.636 186.877C88.3382 187.325 72.082 188.253 55.326 189.64L55.0812 189.65L-58.2946 258.859C-60.8363 260.444 -62.9843 262.585 -64.5762 265.122C-66.1681 267.659 -67.1622 270.525 -67.4833 273.502L-67.7179 275.583L-103.718 597.214C-104.029 599.947 -103.778 602.714 -102.98 605.346C-102.182 607.978 -100.854 610.42 -99.078 612.52C-97.3491 614.567 -95.1961 616.215 -92.7679 617.349C-90.3397 618.483 -87.6943 619.076 -85.0144 619.087H194.341C198.055 619.106 201.653 620.382 204.549 622.707L216.746 632.476C219.925 635.028 223.859 636.455 227.934 636.534L350.764 638.543H351.06C354.161 638.538 357.211 637.745 359.922 636.239L383.613 623.084C385.774 621.881 388.18 621.184 390.65 621.045L655.401 607.064C657.981 606.927 660.503 606.247 662.803 605.07C665.103 603.893 667.13 602.244 668.751 600.232C670.435 598.184 671.693 595.82 672.453 593.28C673.213 590.739 673.459 588.073 673.177 585.436Z" fill="#E6E6E6"/>
<path d="M580.765 528.919L577.059 480.14L561.425 274.467L559.102 244.041C558.514 236.049 554.971 228.563 549.163 223.041C543.355 217.519 535.699 214.358 527.687 214.173C470.401 212.703 366.67 215.291 315.768 249.393C310.107 253.242 303.239 254.901 296.445 254.062C289.651 253.224 283.393 249.944 278.838 244.835C271.795 237.103 263.338 230.789 253.924 226.232C247.034 222.777 239.872 219.895 232.51 217.614C210.964 210.732 183.775 206.551 150.943 205.071L73.0231 204.615H72.8908C67.493 204.62 62.2997 206.679 58.3659 210.375C54.4321 214.071 52.0531 219.125 51.7121 224.511L48.3294 277.996L33.5486 512.551C33.2721 516.921 33.8865 521.301 35.3546 525.426C36.8227 529.551 39.1138 533.335 42.0888 536.547C45.0638 539.76 48.6607 542.334 52.6611 544.115C56.6616 545.895 60.9822 546.844 65.3606 546.904C196.153 548.845 253.291 576.448 278.206 599.241C283.503 604.101 290.271 607.055 297.437 607.636C304.602 608.216 311.757 606.39 317.768 602.447C362.993 572.83 438.178 564.595 498.022 563.315C516.347 562.933 533.231 563.183 547.38 563.683C551.927 563.847 556.458 563.049 560.675 561.341C564.893 559.633 568.702 557.053 571.853 553.771C575.005 550.49 577.428 546.58 578.964 542.297C580.5 538.014 581.114 533.455 580.765 528.919Z" fill="white"/>
<path d="M-16.4649 578.205C-16.5138 578.205 -16.5646 578.203 -16.6135 578.199C-16.8863 578.18 -17.1526 578.107 -17.3973 577.985C-17.6419 577.863 -17.8601 577.694 -18.0394 577.487C-18.2187 577.281 -18.3555 577.041 -18.4421 576.782C-18.5287 576.522 -18.5634 576.248 -18.5441 575.976L3.95979 258.256C3.97584 257.982 4.0465 257.714 4.1676 257.468C4.28871 257.222 4.45783 257.002 4.665 256.822C4.87218 256.643 5.11322 256.506 5.37398 256.421C5.63473 256.335 5.90992 256.303 6.18336 256.326C6.45614 256.345 6.72245 256.417 6.96711 256.54C7.21177 256.662 7.42997 256.831 7.60926 257.037C7.78854 257.244 7.9254 257.483 8.01199 257.743C8.09859 258.002 8.13325 258.276 8.11397 258.549L-14.3899 576.269C-14.4265 576.794 -14.6611 577.286 -15.0461 577.645C-15.4312 578.005 -15.9382 578.205 -16.4649 578.205Z" fill="white"/>
<path d="M8.53315 565.707C8.48432 565.707 8.43344 565.705 8.38458 565.701C8.1118 565.682 7.84545 565.609 7.60079 565.487C7.35612 565.365 7.13792 565.196 6.95864 564.99C6.77936 564.783 6.64254 564.543 6.55595 564.284C6.46935 564.025 6.43469 563.751 6.45397 563.478L28.9579 245.758C28.9739 245.484 29.0446 245.217 29.1657 244.97C29.2868 244.724 29.4559 244.505 29.6631 244.325C29.8703 244.145 30.1113 244.008 30.3721 243.923C30.6328 243.838 30.908 243.805 31.1814 243.828C31.4542 243.847 31.7205 243.92 31.9652 244.042C32.2099 244.164 32.4281 244.333 32.6073 244.54C32.7866 244.746 32.9235 244.986 33.0101 245.245C33.0967 245.505 33.1313 245.778 33.112 246.051L10.6081 563.771C10.5715 564.296 10.337 564.788 9.95195 565.148C9.56688 565.507 9.05988 565.707 8.53315 565.707Z" fill="white"/>
<path d="M648.062 599.034C648.11 599.034 648.161 599.032 648.21 599.028C648.483 599.009 648.749 598.936 648.994 598.814C649.239 598.692 649.457 598.523 649.636 598.316C649.815 598.11 649.952 597.87 650.039 597.611C650.125 597.351 650.16 597.078 650.141 596.805L627.637 279.085C627.621 278.811 627.55 278.543 627.429 278.297C627.308 278.051 627.139 277.832 626.932 277.652C626.724 277.472 626.483 277.335 626.223 277.25C625.962 277.165 625.687 277.132 625.413 277.155C625.14 277.174 624.874 277.247 624.63 277.369C624.385 277.491 624.167 277.66 623.987 277.866C623.808 278.073 623.671 278.313 623.585 278.572C623.498 278.831 623.463 279.105 623.483 279.378L645.987 597.098C646.023 597.623 646.258 598.115 646.643 598.475C647.028 598.834 647.535 599.034 648.062 599.034Z" fill="white"/>
<path d="M620.98 580.288C621.029 580.288 621.08 580.286 621.129 580.282C621.402 580.263 621.668 580.19 621.913 580.068C622.157 579.946 622.376 579.777 622.555 579.57C622.734 579.364 622.871 579.124 622.958 578.865C623.044 578.605 623.079 578.331 623.06 578.059L600.556 260.339C600.54 260.065 600.469 259.797 600.348 259.551C600.227 259.305 600.058 259.085 599.85 258.905C599.643 258.726 599.402 258.589 599.141 258.504C598.881 258.418 598.606 258.386 598.332 258.408C598.059 258.428 597.793 258.5 597.548 258.622C597.304 258.745 597.085 258.914 596.906 259.12C596.727 259.327 596.59 259.566 596.503 259.826C596.417 260.085 596.382 260.359 596.402 260.632L618.906 578.351C618.942 578.877 619.177 579.369 619.562 579.728C619.947 580.088 620.454 580.288 620.98 580.288Z" fill="white"/>
<path d="M595.982 559.459C596.031 559.459 596.082 559.457 596.131 559.453C596.404 559.433 596.67 559.361 596.915 559.239C597.159 559.116 597.378 558.947 597.557 558.741C597.736 558.534 597.873 558.295 597.96 558.035C598.046 557.776 598.081 557.502 598.062 557.229L575.558 239.51C575.542 239.236 575.471 238.968 575.35 238.722C575.229 238.475 575.06 238.256 574.852 238.076C574.645 237.896 574.404 237.76 574.143 237.674C573.883 237.589 573.608 237.557 573.334 237.579C573.061 237.598 572.795 237.671 572.55 237.793C572.306 237.915 572.087 238.084 571.908 238.291C571.729 238.497 571.592 238.737 571.505 238.996C571.419 239.256 571.384 239.53 571.403 239.802L593.907 557.522C593.944 558.048 594.178 558.54 594.564 558.899C594.949 559.258 595.456 559.458 595.982 559.459Z" fill="white"/>
<path d="M84.7527 276.388C131.709 261.408 184.095 265.374 228.58 286.477C241.272 292.467 253.26 299.849 264.321 308.488C267.45 310.943 271.902 306.551 268.74 304.069C227.882 272.382 176.544 257.329 125.042 261.935C110.793 263.21 96.7265 266.036 83.0913 270.362C79.2742 271.58 80.9057 277.615 84.7527 276.388Z" fill="#3F3D56"/>
<path d="M343.137 310.912C386.794 287.968 439.073 282.965 486.54 295.989C500.072 299.693 513.15 304.892 525.532 311.49C529.079 313.383 532.24 307.99 528.686 306.095C483.447 281.958 429.141 276.401 379.739 289.856C365.957 293.616 352.627 298.867 339.983 305.516C336.422 307.388 339.577 312.783 343.137 310.912Z" fill="#3F3D56"/>
<path d="M343.137 352.571C386.794 329.626 439.073 324.623 486.54 337.647C500.072 341.351 513.15 346.551 525.532 353.149C529.079 355.041 532.24 349.649 528.686 347.753C483.447 323.616 429.141 318.06 379.739 331.515C365.957 335.275 352.627 340.526 339.983 347.175C336.422 349.047 339.577 354.442 343.137 352.571Z" fill="#3F3D56"/>
<path d="M530.215 391.994C530.248 391.458 530.119 390.924 529.844 390.462C529.57 390 529.162 389.632 528.675 389.404C492.434 370.429 451.343 362.733 410.69 367.307C410.435 367.327 410.2 367.368 409.925 367.388H409.915C409.665 367.411 409.416 367.448 409.17 367.501C384.991 370.283 361.535 377.512 339.984 388.823C339.514 389.103 339.125 389.5 338.855 389.976C338.585 390.451 338.444 390.989 338.444 391.536V469.249C338.452 469.727 338.569 470.197 338.785 470.624C339.001 471.05 339.312 471.422 339.693 471.711C340.074 472 340.516 472.198 340.985 472.291C341.455 472.384 341.939 472.369 342.401 472.247C343.36 471.971 344.319 471.706 345.298 471.451C367.084 465.555 389.449 462.057 411.995 461.019C412.475 460.999 412.954 460.979 413.454 460.958C431.817 460.17 450.215 460.831 468.474 462.936C468.857 462.958 469.238 462.999 469.616 463.059C470.555 463.161 471.513 463.273 472.452 463.395C472.829 463.436 473.186 463.477 473.533 463.538C477.184 463.997 480.804 464.517 484.435 465.078C489.677 465.914 494.919 466.846 500.161 467.872C500.487 467.933 500.824 468.015 501.16 468.076C509.574 469.748 517.947 471.686 526.279 473.827C526.743 473.947 527.228 473.96 527.698 473.865C528.167 473.77 528.609 473.569 528.99 473.279C529.371 472.988 529.681 472.615 529.897 472.187C530.113 471.759 530.229 471.288 530.236 470.809V392.117C530.239 392.075 530.232 392.033 530.215 391.994Z" fill="#3F3D56"/>
<path d="M415.589 371.544C413.3 370.423 410.676 370.193 408.226 370.898C407.143 371.303 406.153 371.92 405.311 372.712C404.469 373.503 403.792 374.454 403.321 375.51C402.472 377.533 401.928 379.671 401.707 381.854C401.577 382.712 401.569 383.796 402.432 384.197C402.746 384.31 403.084 384.336 403.411 384.272C403.738 384.207 404.041 384.054 404.287 383.83C404.733 383.39 405.1 382.878 405.373 382.314C406.872 379.983 408.935 378.067 411.37 376.743C413.805 375.419 416.535 374.73 419.307 374.74L421.614 375.659C419.799 374.025 417.773 372.641 415.589 371.544Z" fill="#FF6582"/>
<path d="M440.56 389.456C438.77 386.821 436.648 384.007 433.325 383.146C429.478 382.149 425.525 384.129 422.172 386.083C412.202 391.889 402.547 398.22 393.248 405.05L393.258 405.152L414.842 403.827C420.04 403.508 425.416 403.145 430.01 400.957C431.66 399.923 433.503 399.236 435.428 398.94C436.621 399.004 437.791 399.305 438.868 399.824C439.945 400.343 440.908 401.07 441.703 401.963C451.65 411.39 454.529 425.807 465.688 434.089C458.587 418.529 450.181 403.598 440.56 389.456Z" fill="white"/>
<path d="M413.457 460.957C412.958 460.978 412.478 460.999 411.999 461.019C408.52 459.77 404.958 458.666 401.354 457.707C399.021 457.083 396.646 456.52 394.271 456.041C391.584 455.458 388.876 455 386.168 454.604C381.012 453.854 375.815 453.416 370.607 453.292C370.567 453.296 370.527 453.292 370.489 453.28C370.452 453.268 370.417 453.248 370.387 453.221C370.358 453.195 370.334 453.162 370.318 453.126C370.302 453.09 370.293 453.05 370.293 453.011C370.293 452.971 370.302 452.932 370.318 452.895C370.334 452.859 370.358 452.827 370.387 452.8C370.417 452.774 370.452 452.754 370.489 452.742C370.527 452.729 370.567 452.725 370.607 452.73C371.273 452.73 371.94 452.75 372.586 452.792C377.805 452.985 383.009 453.493 388.168 454.313C390.855 454.75 393.542 455.271 396.209 455.854C398.625 456.396 401.041 457 403.417 457.666C406.812 458.624 410.159 459.721 413.457 460.957Z" fill="white"/>
<path d="M473.536 463.54C473.182 463.477 472.827 463.435 472.453 463.394C471.015 462.207 469.557 461.082 468.036 459.978C466.14 458.603 464.182 457.312 462.183 456.104C457.754 453.416 453.13 451.062 448.35 449.064C440.793 445.917 432.971 443.449 424.977 441.69C415.858 439.692 406.627 438.246 397.334 437.357C388.043 436.399 378.71 435.816 369.377 435.233C368.982 435.212 368.961 434.629 369.377 434.65C370.544 434.733 371.711 434.795 372.898 434.879C382.335 435.462 391.771 436.129 401.146 437.191C410.441 438.187 419.661 439.787 428.748 441.982C436.505 443.893 444.076 446.493 451.371 449.751C455.567 451.636 459.631 453.8 463.537 456.229C466.015 457.791 468.411 459.457 470.702 461.228C471.661 461.978 472.619 462.728 473.536 463.54Z" fill="white"/>
<path d="M469.62 463.061C469.24 463 468.858 462.958 468.474 462.936C468.037 462.582 467.578 462.248 467.12 461.915C463.913 459.62 460.566 457.526 457.1 455.645C453.951 453.935 450.718 452.384 447.413 451.001C439.86 447.845 432.037 445.377 424.04 443.627C414.921 441.629 405.689 440.183 396.396 439.295C387.105 438.336 377.773 437.753 368.44 437.17C368.045 437.128 368.045 436.566 368.44 436.587C369.628 436.67 370.794 436.733 371.961 436.816C381.397 437.399 390.834 438.066 400.208 439.128C409.503 440.124 418.724 441.724 427.81 443.919C435.569 445.827 443.14 448.427 450.433 451.688C453.183 452.938 455.871 454.292 458.495 455.771C462.388 457.907 466.107 460.345 469.62 463.061Z" fill="white"/>
<path d="M501.159 468.081C500.826 468.018 500.492 467.935 500.159 467.872C499.784 467.476 499.429 467.06 499.076 466.643C497.284 464.581 495.514 462.498 493.763 460.394C486.868 452.188 480.327 443.731 474.161 435.108C468.87 427.734 463.849 420.215 459.1 412.55C456.829 408.925 454.641 405.259 452.496 401.552C450.83 398.678 449.205 395.796 447.621 392.908C447.163 392.075 446.726 391.241 446.288 390.408C445.267 388.45 444.246 386.471 443.164 384.534C441.986 382.161 440.257 380.104 438.122 378.535C437.055 377.821 435.82 377.397 434.539 377.307C432.733 377.313 430.957 377.771 429.373 378.639C417.718 384.066 406.724 390.81 396.605 398.74C386.721 406.426 377.785 415.257 369.982 425.047C369.732 425.339 369.19 425.068 369.419 424.756C370.356 423.589 371.315 422.423 372.273 421.277C379.772 412.407 388.218 404.382 397.458 397.344C397.479 397.323 397.521 397.303 397.542 397.282C398.354 396.636 399.167 396.011 400 395.407C405.159 391.609 410.529 388.104 416.082 384.909C418.915 383.264 421.811 381.701 424.769 380.223C425.498 379.848 426.248 379.473 426.998 379.119C427.748 378.744 428.498 378.39 429.248 378.035C430.732 377.279 432.355 376.832 434.018 376.723C439.809 376.64 442.788 382.472 444.851 386.409C445.496 387.638 446.163 388.867 446.809 390.096C449.309 394.741 451.913 399.365 454.621 403.926C456.266 406.759 457.975 409.571 459.704 412.362C462.183 416.341 464.724 420.277 467.37 424.194L467.371 424.202L467.376 424.208L467.383 424.213L467.391 424.214C470.453 428.838 473.64 433.379 476.932 437.899C482.577 445.627 488.493 453.181 494.68 460.561C496.805 463.102 498.965 465.609 501.159 468.081Z" fill="white"/>
<path d="M530.24 458.895V459.853C528.177 457.437 526.073 455.042 523.99 452.646C523.115 451.646 522.24 450.647 521.365 449.647C517.657 445.439 513.928 441.246 510.179 437.066C506.408 432.9 502.638 428.734 498.825 424.589C497.909 423.589 496.992 422.59 496.055 421.59C495.305 420.75 494.49 419.97 493.617 419.257C492.737 418.525 491.727 417.966 490.638 417.611C489.386 417.264 488.065 417.25 486.806 417.57C485.368 417.903 483.993 418.424 482.598 418.861C481.16 419.34 479.744 419.798 478.306 420.256C475.431 421.194 472.578 422.131 469.703 423.069C469.667 423.083 469.629 423.09 469.591 423.09C469.552 423.089 469.515 423.081 469.48 423.065C469.445 423.049 469.413 423.027 469.387 422.999C469.361 422.971 469.341 422.938 469.328 422.902C469.311 422.862 469.304 422.82 469.306 422.777C469.308 422.735 469.319 422.693 469.339 422.655C469.359 422.617 469.387 422.584 469.421 422.559C469.455 422.533 469.494 422.515 469.536 422.506C470.245 422.277 470.974 422.048 471.703 421.819C474.598 420.861 477.473 419.923 480.369 418.986C481.806 418.507 483.243 418.049 484.681 417.591C486.014 417.084 487.422 416.803 488.847 416.757C491.174 416.925 493.356 417.949 494.972 419.632C495.867 420.465 496.68 421.34 497.492 422.235C498.45 423.277 499.409 424.318 500.367 425.36C504.221 429.567 508.047 433.789 511.845 438.024C515.657 442.273 519.435 446.529 523.178 450.792C523.448 451.105 523.719 451.417 523.99 451.73C526.094 454.104 528.156 456.5 530.24 458.895Z" fill="white"/>
<path d="M426.838 376.088L426.261 376.34C424.941 374.112 423.091 372.244 420.875 370.902C418.659 369.561 416.146 368.788 413.56 368.652C405.031 368.046 397.539 373.729 396.858 381.319C396.582 384.444 397.486 387.56 399.394 390.051L398.859 390.367C396.872 387.773 395.93 384.528 396.218 381.274C396.927 373.369 404.729 367.451 413.611 368.082C416.305 368.224 418.921 369.029 421.229 370.426C423.536 371.823 425.463 373.768 426.838 376.088Z" fill="#FF6582"/>
<path d="M384.695 391.445C382.457 390.472 380.019 390.045 377.583 390.2C375.147 390.355 372.783 391.088 370.687 392.337C378.341 393.511 385.929 395.087 393.419 397.059C390.318 395.441 387.892 392.908 384.695 391.445Z" fill="white"/>
<path d="M370.643 392.33L369.801 392.94C370.086 392.726 370.382 392.526 370.687 392.337L370.643 392.33Z" fill="white"/>
<path d="M493.294 423.094C492.507 422.081 491.458 421.301 490.26 420.84L489.076 420.882C498.373 435.348 510.554 447.742 524.858 457.29C514.337 445.891 503.815 434.493 493.294 423.094Z" fill="white"/>
<path d="M396.027 395.866C395.691 395.533 395.357 395.2 395.019 394.866C392.426 392.045 389.303 389.76 385.829 388.142C384.06 387.398 382.162 387.006 380.243 386.99C378.26 387.036 376.299 387.417 374.443 388.116C373.57 388.426 372.716 388.779 371.875 389.154C370.914 389.584 369.97 390.043 369.031 390.506C367.267 391.375 365.526 392.282 363.809 393.226C360.391 395.106 357.08 397.13 353.876 399.297C352.215 400.421 350.589 401.581 348.996 402.779C347.515 403.891 346.064 405.034 344.643 406.206C344.339 406.455 343.886 406.051 344.189 405.802C344.564 405.491 344.943 405.183 345.322 404.878C346.392 404.017 347.479 403.173 348.583 402.345C350.597 400.832 352.663 399.378 354.781 397.983C358.075 395.811 361.482 393.787 365.003 391.91C366.762 390.973 368.546 390.075 370.353 389.217C370.899 388.958 371.451 388.704 372.01 388.464C373.286 387.892 374.602 387.415 375.948 387.038C377.879 386.484 379.898 386.308 381.896 386.518C383.808 386.762 385.664 387.333 387.383 388.207C390.789 390.116 393.862 392.566 396.481 395.461C396.755 395.735 396.303 396.141 396.027 395.866Z" fill="white"/>
<path d="M84.7527 318.046C131.709 303.067 184.095 307.032 228.58 328.136C241.272 334.126 253.26 341.508 264.321 350.146C267.45 352.602 271.902 348.21 268.74 345.728C227.882 314.041 176.544 298.988 125.042 303.594C110.793 304.868 96.7265 307.694 83.0913 312.021C79.2742 313.238 80.9057 319.273 84.7527 318.046Z" fill="#3F3D56"/>
<path d="M84.7527 359.705C131.709 344.725 184.095 348.691 228.58 369.794C241.272 375.784 253.26 383.167 264.321 391.805C267.45 394.261 271.902 389.868 268.74 387.387C227.882 355.699 176.544 340.646 125.042 345.252C110.793 346.527 96.7265 349.353 83.0913 353.679C79.2742 354.897 80.9057 360.932 84.7527 359.705Z" fill="#3F3D56"/>
<path d="M84.7527 401.363C131.709 386.384 184.095 390.35 228.58 411.453C241.272 417.443 253.26 424.825 264.321 433.464C267.45 435.919 271.902 431.527 268.74 429.045C227.882 397.358 176.544 382.305 125.042 386.911C110.793 388.186 96.7265 391.011 83.0913 395.338C79.2742 396.555 80.9057 402.591 84.7527 401.363Z" fill="#3F3D56"/>
<path d="M84.7527 443.022C131.709 428.042 184.095 432.008 228.58 453.111C241.272 459.101 253.26 466.484 264.321 475.122C267.45 477.578 271.902 473.186 268.74 470.704C227.882 439.016 176.544 423.963 125.042 428.569C110.793 429.844 96.7265 432.67 83.0913 436.996C79.2742 438.214 80.9057 444.249 84.7527 443.022Z" fill="#3F3D56"/>
<path d="M84.7527 484.681C131.709 469.701 184.095 473.667 228.58 494.77C241.272 500.76 253.26 508.142 264.321 516.781C267.45 519.236 271.902 514.844 268.74 512.362C227.882 480.675 176.544 465.622 125.042 470.228C110.793 471.503 96.7265 474.329 83.0913 478.655C79.2742 479.873 80.9057 485.908 84.7527 484.681Z" fill="#3F3D56"/>
<path d="M253.93 209.362V326.12C253.93 328.109 250.462 329.771 245.781 330.219C244.966 330.301 244.109 330.342 243.222 330.342C240.645 330.391 238.082 329.973 235.654 329.108C235.204 328.933 234.768 328.725 234.349 328.486C233.186 327.803 232.513 326.997 232.513 326.12V200.357C236.327 201.632 239.887 202.968 243.222 204.355C247.097 205.966 250.656 207.638 253.93 209.362Z" fill="#FFAB4C"/>
<path d="M298.815 249.396H295.755V627.082H298.815V249.396Z" fill="#E6E6E6"/>
<path d="M571.868 553.757C568.713 557.04 564.902 559.62 560.682 561.331C556.463 563.041 551.93 563.843 547.38 563.683C533.231 563.183 516.347 562.933 498.022 563.315L497.919 563.227L577.339 460.288L580.765 528.919C581.109 533.451 580.494 538.006 578.961 542.285C577.428 546.564 575.011 550.473 571.868 553.757Z" fill="#F2F2F2"/>
<path d="M374.157 913.531L369.921 947.913L366.685 974.045L365.391 984.589H346.977V975.221L346.963 944.222V913.531H374.157Z" fill="#FFB6B6"/>
<path d="M245.761 909.928L240.54 926.045L236.349 938.972L235.628 941.192L232.76 950.031L226.701 968.721L223.686 978.03L206.934 974.795L205.596 974.545L206.684 968.927L207.346 965.501L214.67 927.531L215.861 921.413L216.053 920.428L216.597 917.59L219.068 904.781L236.922 908.222L238.981 908.619L245.761 909.928Z" fill="#FFB6B6"/>
<path d="M401.821 708.784C391.29 766.651 388.658 791.636 388.658 791.636C388.658 791.636 396.556 800.841 391.29 806.106C386.025 811.371 391.29 821.885 391.29 821.885L379.451 949.457L369.921 947.913L346.962 944.222L338.682 942.883L343.947 823.209C343.947 823.209 338.682 812.68 341.315 810.047C343.947 807.415 338.682 791.636 338.682 791.636L332.108 666.696L291.324 803.474C291.324 803.474 295.281 808.738 291.324 812.679C287.383 816.621 279.5 836.356 279.5 836.356L255.247 921.207L253.188 928.413L240.54 926.045L226.774 923.457L224.244 922.987L219.744 922.134L216.846 921.59L215.861 921.413L211.096 920.516L212.537 914.119L213.287 910.752L233.804 819.635L234.275 817.532L234.775 815.312C234.775 815.312 232.142 808.738 236.084 804.783C237.237 803.577 238.079 802.109 238.538 800.505C238.996 798.901 239.058 797.21 238.716 795.577C238.587 795.439 238.469 795.292 238.363 795.136C237.898 794.497 237.577 793.764 237.422 792.989C237.069 791.342 237.378 789.033 240.04 786.371C240.79 785.575 241.419 784.673 241.908 783.695C245.908 776.121 247.923 760.077 247.923 760.077C247.923 760.077 251.482 633.006 263.13 613.594C263.591 612.747 264.24 612.018 265.028 611.462C278.176 603.58 404.439 611.462 404.439 611.462C404.439 611.462 404.615 612.374 404.895 614.109C406.41 623.859 410.748 659.696 401.821 708.784Z" fill="#2F2E41"/>
<path d="M397.683 475.333L401.37 453.126L469.263 464.551L565.59 471.442C567.68 469.13 570.462 467.554 573.52 466.95C576.578 466.346 579.749 466.746 582.562 468.09C585.374 469.433 587.677 471.649 589.128 474.408C590.58 477.166 591.101 480.32 590.615 483.398C590.129 486.477 588.662 489.316 586.431 491.494C584.201 493.671 581.327 495.07 578.237 495.482C575.147 495.894 572.007 495.298 569.284 493.781C566.561 492.264 564.4 489.909 563.124 487.066L504.045 491.04L397.683 475.333Z" fill="#FFB6B6"/>
<path d="M346.933 459.962L351.727 440.138C351.727 440.138 377.759 435.346 398.34 439.931L475.767 454.788L469.5 501.587L346.933 459.962Z" fill="#FFAB4C"/>
<path d="M167.218 623.203L210.536 529.111L242.148 462.539L269.565 478.673L184.217 633.557C184.966 636.319 184.88 639.24 183.969 641.953C183.058 644.665 181.363 647.046 179.099 648.795C176.834 650.544 174.102 651.583 171.247 651.779C168.392 651.975 165.543 651.321 163.06 649.898C160.578 648.476 158.573 646.349 157.299 643.787C156.025 641.225 155.539 638.343 155.904 635.505C156.268 632.667 157.466 630.001 159.346 627.844C161.225 625.686 163.703 624.135 166.464 623.385C166.714 623.318 166.965 623.258 167.218 623.203Z" fill="#FFB6B6"/>
<path d="M292.147 434.015L271.121 424.369C271.121 424.369 267.393 423.076 259.353 434.207C251.313 445.338 182.153 550.368 182.153 550.368L226.07 570.218L292.147 434.015Z" fill="#FFAB4C"/>
<path d="M397.953 1005.06L370.583 986.148V973.81L366.685 974.045L346.977 975.221L341.785 975.53L338.197 1018.5L338.153 1019.1H351.081L351.198 1018.5L353.39 1006.9L358.993 1018.5L359.287 1019.1H393.585C394.615 1019.1 395.634 1018.9 396.585 1018.5C397.858 1017.96 398.963 1017.09 399.784 1015.98C400.605 1014.87 401.112 1013.56 401.252 1012.18C401.392 1010.81 401.159 1009.42 400.579 1008.17C399.999 1006.92 399.091 1005.84 397.953 1005.06Z" fill="#2F2E41"/>
<path d="M251.968 1006.19L240.04 993.192L231.716 984.104L230.348 982.604L230.142 982.383L229.48 981.662L232.23 969.633L226.7 968.721L207.345 965.501L206.301 965.339L204.242 964.986L203.772 964.913L197.168 985.721L191.182 1004.53L190.535 1006.59L198.492 1008.4L203.139 1009.46L205.433 1004.19L205.683 1003.63L207.184 1000.18V1000.16L208.11 998.074L211.155 1011.28L211.684 1011.4L211.758 1011.41L213.625 1011.84L217.273 1012.68L242.775 1018.5L244.584 1018.91C246.577 1019.36 248.664 1018.99 250.391 1017.91C252.119 1016.82 253.346 1015.09 253.806 1013.1C254.083 1011.89 254.06 1010.62 253.74 1009.42C253.42 1008.22 252.811 1007.11 251.968 1006.19Z" fill="#2F2E41"/>
<path d="M370.009 373.346C367.034 378.804 362.905 383.547 357.908 387.245C352.912 390.943 347.169 393.507 341.079 394.757C340.403 394.904 339.726 395.022 339.035 395.125C329.48 396.618 319.701 394.835 311.289 390.065C302.877 385.295 296.326 377.819 292.703 368.853C289.081 359.888 288.599 349.96 291.336 340.686C294.073 331.412 299.869 323.337 307.779 317.774C315.69 312.212 325.25 309.49 334.905 310.051C344.559 310.612 353.74 314.423 360.952 320.864C368.165 327.306 372.986 335.998 374.63 345.527C376.275 355.055 374.646 364.86 370.009 373.346Z" fill="#FFB6B6"/>
<path d="M352.977 315.214C338.961 305.576 326.619 304.108 316.48 306.842C315.166 304.809 313.323 303.172 311.149 302.108C303.242 282.186 279.178 270.222 258.526 276.038C237.741 281.891 223.4 304.912 227.311 326.146C229.735 339.308 238.019 350.706 241.351 363.668C247.802 388.76 232.067 417.502 207.451 425.591C230.758 430.27 256.412 416.035 264.773 393.785C268.834 382.978 269.079 371.178 269.596 359.645C269.731 351.684 270.707 343.76 272.506 336.004C273.398 332.524 274.66 329.15 276.268 325.937C279.772 318.877 285.592 313.231 292.756 309.943C292.115 311.927 291.954 314.035 292.288 316.093C292.622 318.152 293.441 320.101 294.676 321.78C289.211 328.626 286.235 336.03 286.235 340.464C274.881 361.214 291.118 379.037 311.871 390.39C320.148 394.942 329.705 396.608 339.035 395.125L339.903 391.419L341.079 394.757L345.006 405.948C349.536 408.14 354.027 410.542 358.478 413.154C356.787 405.213 355.419 397.287 354.477 389.537C353.174 378.989 357.718 363.285 360.995 353.736C363.027 347.85 364.07 341.669 364.082 335.442V335.17L367.273 345.42L378.892 340.464C376.73 328.067 378.892 313.994 352.977 315.214Z" fill="#2F2E41"/>
<path d="M263.708 599.628C265.235 593.585 265.235 587.258 263.708 581.216C261.077 572.01 266.339 568.065 266.339 568.065L267.654 426.03C273.211 420.474 288.099 420.384 296.428 420.816V414.561C296.428 412.258 297.343 410.049 298.972 408.42C300.601 406.792 302.81 405.877 305.113 405.877H343.631C345.934 405.877 348.143 406.792 349.772 408.42C351.401 410.049 352.316 412.258 352.316 414.561V422.059L363.613 422.236C383.286 423.701 400.498 443.127 400.498 443.127L383.399 508.884C383.399 508.884 388.66 562.804 395.236 569.38C401.813 575.955 399.182 579.901 399.182 579.901C399.182 579.901 395.236 594.367 403.128 599.628C411.02 604.888 405.759 614.094 405.759 614.094C405.759 614.094 263.708 616.724 259.762 612.779C255.816 608.834 263.708 599.628 263.708 599.628Z" fill="#FFAB4C"/>
<path d="M525.436 1020.25C525.437 1020.48 525.392 1020.71 525.305 1020.92C525.217 1021.13 525.088 1021.33 524.925 1021.49C524.763 1021.65 524.569 1021.78 524.357 1021.87C524.144 1021.96 523.916 1022 523.686 1022H111.453C110.989 1022 110.544 1021.82 110.216 1021.49C109.888 1021.16 109.703 1020.71 109.703 1020.25C109.703 1019.79 109.888 1019.34 110.216 1019.01C110.544 1018.68 110.989 1018.5 111.453 1018.5H523.686C523.916 1018.5 524.144 1018.54 524.357 1018.63C524.569 1018.72 524.763 1018.85 524.925 1019.01C525.088 1019.17 525.217 1019.37 525.305 1019.58C525.392 1019.79 525.437 1020.02 525.436 1020.25Z" fill="#CCCCCC"/>
<circle cx="117" cy="73" r="136" fill="url(#paint0_radial_2_5)"/>
<path d="M238.567 56.8979C231.935 52.2171 224.679 47.336 216.564 47.5312C196.922 48.0034 186.333 76.7938 166.711 75.7813C154.198 75.1356 145.891 62.4255 134.24 57.8169C119.072 51.8172 99.7688 63.5511 98.114 79.7771L100.062 77.9945C159.025 92.367 220.213 95.1934 280.25 86.3178C266.356 76.5111 252.461 66.7045 238.567 56.8979Z" fill="#F0F0F0"/>
</g>
<defs>
<radialGradient id="paint0_radial_2_5" cx="0" cy="0" r="1" gradientUnits="userSpaceOnUse" gradientTransform="translate(117 73) rotate(90) scale(136)">
<stop stop-color="#FF6582"/>
<stop offset="1" stop-color="#D9D9D9" stop-opacity="0"/>
</radialGradient>
<clipPath id="clip0_2_5">
<rect width="865" height="1022" fill="white" transform="translate(-145)"/>
</clipPath>
</defs>
</svg>
